<?xml version="1.0" encoding="utf-8" standalone="no"?>
<!DOCTYPE svg PUBLIC "-//W3C//DTD SVG 1.1//EN"
  "http://www.w3.org/Graphics/SVG/1.1/DTD/svg11.dtd">
<svg xmlns:xlink="http://www.w3.org/1999/xlink" width="576pt" height="360pt" viewBox="0 0 576 360" xmlns="http://www.w3.org/2000/svg" version="1.1">
 <metadata>
  <rdf:RDF xmlns:dc="http://purl.org/dc/elements/1.1/" xmlns:cc="http://creativecommons.org/ns#" xmlns:rdf="http://www.w3.org/1999/02/22-rdf-syntax-ns#">
   <cc:Work>
    <dc:type rdf:resource="http://purl.org/dc/dcmitype/StillImage"/>
    <dc:date>2025-10-08T16:47:56.277311</dc:date>
    <dc:format>image/svg+xml</dc:format>
    <dc:creator>
     <cc:Agent>
      <dc:title>Matplotlib v3.10.3, https://matplotlib.org/</dc:title>
     </cc:Agent>
    </dc:creator>
   </cc:Work>
  </rdf:RDF>
 </metadata>
 <defs>
  <style type="text/css">*{stroke-linejoin: round; stroke-linecap: butt}</style>
 </defs>
 <g id="figure_1">
  <g id="patch_1">
   <path d="M 0 360 
L 576 360 
L 576 0 
L 0 0 
z
" style="fill: #ffffff"/>
  </g>
  <g id="axes_1">
   <g id="patch_2">
    <path d="M 72 320.4 
L 518.4 320.4 
L 518.4 43.2 
L 72 43.2 
z
" style="fill: #ffffff"/>
   </g>
   <g id="matplotlib.axis_1">
    <g id="xtick_1">
     <g id="line2d_1">
      <defs>
       <path id="m4c29bef9dd" d="M 0 0 
L 0 3.5 
" style="stroke: #000000; stroke-width: 0.8"/>
      </defs>
      <g>
       <use xlink:href="#m4c29bef9dd" x="92.290909" y="320.4" style="stroke: #000000; stroke-width: 0.8"/>
      </g>
     </g>
     <g id="text_1">
      <!-- 0 -->
      <g transform="translate(89.27294 334.998438) scale(0.1 -0.1)">
       <defs>
        <path id="HackGen35Console-Regular-30" d="M 1925 -88 
Q 1144 -88 763 506 
Q 375 1100 375 2325 
Q 375 3550 763 4150 
Q 1144 4750 1925 4750 
Q 2306 4750 2597 4606 
Q 2888 4463 3088 4150 
Q 3475 3550 3475 2325 
Q 3475 1113 3088 513 
Q 2888 200 2597 56 
Q 2306 -88 1925 -88 
z
M 1925 425 
Q 2400 425 2613 863 
Q 2819 1288 2819 2325 
Q 2819 3363 2613 3800 
Q 2400 4238 1925 4238 
Q 1456 4238 1244 3800 
Q 1031 3350 1031 2325 
Q 1031 1313 1244 863 
Q 1456 425 1925 425 
z
M 1925 1800 
Q 1763 1800 1656 1950 
Q 1544 2088 1544 2325 
Q 1544 2563 1653 2709 
Q 1763 2856 1925 2856 
Q 2088 2856 2197 2709 
Q 2306 2563 2306 2325 
Q 2306 2088 2197 1944 
Q 2088 1800 1925 1800 
z
" transform="scale(0.015625)"/>
       </defs>
       <use xlink:href="#HackGen35Console-Regular-30"/>
      </g>
     </g>
    </g>
    <g id="xtick_2">
     <g id="line2d_2">
      <g>
       <use xlink:href="#m4c29bef9dd" x="174.27438" y="320.4" style="stroke: #000000; stroke-width: 0.8"/>
      </g>
     </g>
     <g id="text_2">
      <!-- 20 -->
      <g transform="translate(168.238443 334.998438) scale(0.1 -0.1)">
       <defs>
        <path id="HackGen35Console-Regular-32" d="M 481 419 
Q 481 531 556 613 
Q 731 800 981 1056 
Q 1231 1313 1506 1619 
Q 1719 1850 1825 1969 
Q 1931 2088 1987 2150 
Q 2044 2213 2106 2288 
Q 2269 2488 2369 2625 
Q 2469 2763 2531 2900 
Q 2644 3138 2638 3388 
Q 2631 3775 2406 4000 
Q 2175 4225 1775 4219 
Q 1213 4213 519 3800 
L 519 4438 
Q 844 4588 1156 4675 
Q 1469 4750 1769 4750 
Q 2094 4750 2375 4662 
Q 2656 4575 2869 4388 
Q 3056 4225 3168 3984 
Q 3281 3744 3281 3444 
Q 3281 3138 3144 2825 
Q 3075 2669 2969 2522 
Q 2863 2375 2694 2175 
Q 2606 2069 2481 1928 
Q 2356 1788 2188 1606 
Q 2069 1481 1969 1378 
Q 1869 1275 1756 1163 
Q 1756 1163 1494 900 
Q 1356 750 1144 531 
L 3319 531 
L 3319 0 
L 481 0 
L 481 419 
z
" transform="scale(0.015625)"/>
       </defs>
       <use xlink:href="#HackGen35Console-Regular-32"/>
       <use xlink:href="#HackGen35Console-Regular-30" transform="translate(60.351562 0)"/>
      </g>
     </g>
    </g>
    <g id="xtick_3">
     <g id="line2d_3">
      <g>
       <use xlink:href="#m4c29bef9dd" x="256.257851" y="320.4" style="stroke: #000000; stroke-width: 0.8"/>
      </g>
     </g>
     <g id="text_3">
      <!-- 40 -->
      <g transform="translate(250.221914 334.998438) scale(0.1 -0.1)">
       <defs>
        <path id="HackGen35Console-Regular-34" d="M 2306 1113 
L 325 1113 
L 325 1713 
L 2200 4663 
L 2931 4663 
L 2931 1625 
L 3556 1625 
L 3556 1113 
L 2931 1113 
L 2931 0 
L 2306 0 
L 2306 1113 
z
M 2306 1625 
L 2306 4088 
L 831 1625 
L 2306 1625 
z
" transform="scale(0.015625)"/>
       </defs>
       <use xlink:href="#HackGen35Console-Regular-34"/>
       <use xlink:href="#HackGen35Console-Regular-30" transform="translate(60.351562 0)"/>
      </g>
     </g>
    </g>
    <g id="xtick_4">
     <g id="line2d_4">
      <g>
       <use xlink:href="#m4c29bef9dd" x="338.241322" y="320.4" style="stroke: #000000; stroke-width: 0.8"/>
      </g>
     </g>
     <g id="text_4">
      <!-- 60 -->
      <g transform="translate(332.205385 334.998438) scale(0.1 -0.1)">
       <defs>
        <path id="HackGen35Console-Regular-36" d="M 1981 -88 
Q 1556 -88 1269 63 
Q 994 213 806 500 
Q 606 806 512 1247 
Q 419 1688 419 2263 
Q 419 3525 875 4137 
Q 1331 4750 2188 4750 
Q 2313 4750 2434 4737 
Q 2556 4725 2656 4700 
Q 2781 4675 2893 4637 
Q 3006 4600 3106 4563 
L 3106 3981 
Q 2906 4100 2681 4163 
Q 2569 4194 2456 4206 
Q 2344 4219 2231 4219 
Q 1619 4219 1313 3769 
Q 1006 3313 1006 2438 
Q 1156 2750 1419 2919 
Q 1694 3088 2056 3088 
Q 2700 3088 3072 2669 
Q 3444 2250 3444 1500 
Q 3444 738 3062 325 
Q 2681 -88 1981 -88 
z
M 1981 400 
Q 2394 400 2606 681 
Q 2819 963 2819 1500 
Q 2819 2038 2606 2313 
Q 2494 2456 2337 2522 
Q 2181 2588 1988 2588 
Q 1769 2588 1609 2513 
Q 1450 2438 1344 2300 
Q 1231 2163 1172 1963 
Q 1113 1763 1113 1500 
Q 1113 1238 1172 1031 
Q 1231 825 1344 688 
Q 1450 550 1609 475 
Q 1769 400 1981 400 
z
" transform="scale(0.015625)"/>
       </defs>
       <use xlink:href="#HackGen35Console-Regular-36"/>
       <use xlink:href="#HackGen35Console-Regular-30" transform="translate(60.351562 0)"/>
      </g>
     </g>
    </g>
    <g id="xtick_5">
     <g id="line2d_5">
      <g>
       <use xlink:href="#m4c29bef9dd" x="420.224793" y="320.4" style="stroke: #000000; stroke-width: 0.8"/>
      </g>
     </g>
     <g id="text_5">
      <!-- 80 -->
      <g transform="translate(414.188856 334.998438) scale(0.1 -0.1)">
       <defs>
        <path id="HackGen35Console-Regular-38" d="M 3044 263 
Q 2644 -88 1931 -88 
Q 1219 -88 819 262 
Q 419 613 419 1250 
Q 419 1750 669 2062 
Q 919 2375 1381 2475 
Q 1194 2525 1031 2625 
Q 869 2725 756 2863 
Q 638 3013 581 3188 
Q 525 3350 525 3550 
Q 531 4088 906 4425 
Q 1094 4588 1344 4669 
Q 1594 4750 1931 4750 
Q 2581 4750 2962 4425 
Q 3344 4100 3344 3550 
Q 3344 3138 3119 2863 
Q 2894 2588 2481 2475 
Q 2956 2375 3203 2062 
Q 3450 1750 3450 1256 
Q 3450 931 3347 681 
Q 3244 431 3044 263 
z
M 1931 2713 
Q 2313 2713 2513 2913 
Q 2713 3113 2713 3481 
Q 2719 3863 2519 4063 
Q 2319 4263 1931 4263 
Q 1556 4263 1356 4063 
Q 1156 3863 1156 3481 
Q 1156 3106 1356 2909 
Q 1556 2713 1931 2713 
z
M 1944 400 
Q 2356 400 2587 640 
Q 2819 881 2819 1306 
Q 2819 1538 2756 1700 
Q 2694 1863 2581 1975 
Q 2344 2213 1931 2213 
Q 1513 2213 1281 1981 
Q 1050 1738 1050 1313 
Q 1050 881 1281 644 
Q 1519 400 1944 400 
z
" transform="scale(0.015625)"/>
       </defs>
       <use xlink:href="#HackGen35Console-Regular-38"/>
       <use xlink:href="#HackGen35Console-Regular-30" transform="translate(60.351562 0)"/>
      </g>
     </g>
    </g>
    <g id="xtick_6">
     <g id="line2d_6">
      <g>
       <use xlink:href="#m4c29bef9dd" x="502.208264" y="320.4" style="stroke: #000000; stroke-width: 0.8"/>
      </g>
     </g>
     <g id="text_6">
      <!-- 100 -->
      <g transform="translate(493.154358 334.998438) scale(0.1 -0.1)">
       <defs>
        <path id="HackGen35Console-Regular-31" d="M 850 531 
L 1831 531 
L 1831 3875 
L 1088 3031 
L 744 3450 
L 1825 4663 
L 2456 4663 
L 2456 531 
L 3425 531 
L 3425 0 
L 850 0 
L 850 531 
z
" transform="scale(0.015625)"/>
       </defs>
       <use xlink:href="#HackGen35Console-Regular-31"/>
       <use xlink:href="#HackGen35Console-Regular-30" transform="translate(60.351562 0)"/>
       <use xlink:href="#HackGen35Console-Regular-30" transform="translate(120.703125 0)"/>
      </g>
     </g>
    </g>
    <g id="text_7">
     <!-- Epoch -->
     <g transform="translate(271.05625 353.235625) scale(0.16 -0.16)">
      <defs>
       <path id="HackGen35Console-Regular-45" d="M 619 4663 
L 3394 4663 
L 3394 4138 
L 1256 4138 
L 1256 2750 
L 3294 2750 
L 3294 2225 
L 1256 2225 
L 1256 531 
L 3450 531 
L 3450 0 
L 619 0 
L 619 4663 
z
" transform="scale(0.015625)"/>
       <path id="HackGen35Console-Regular-70" d="M 600 3500 
L 1119 3500 
L 1181 3050 
Q 1481 3588 2119 3588 
Q 2744 3588 3106 3094 
Q 3469 2600 3469 1750 
Q 3469 894 3106 403 
Q 2744 -88 2119 -88 
Q 1469 -88 1181 438 
L 1181 -1331 
L 600 -1331 
L 600 3500 
z
M 2044 400 
Q 2869 400 2869 1750 
Q 2869 3100 2044 3100 
Q 1619 3100 1400 2750 
Q 1181 2400 1181 1750 
Q 1181 1100 1403 750 
Q 1625 400 2044 400 
z
" transform="scale(0.015625)"/>
       <path id="HackGen35Console-Regular-6f" d="M 1931 -88 
Q 1200 -88 812 384 
Q 425 856 425 1743 
Q 425 2631 812 3109 
Q 1200 3588 1925 3588 
Q 2650 3588 3037 3113 
Q 3425 2638 3425 1738 
Q 3425 850 3040 381 
Q 2656 -88 1931 -88 
z
M 1925 400 
Q 2350 400 2581 750 
Q 2813 1100 2813 1750 
Q 2813 2400 2588 2750 
Q 2350 3100 1925 3100 
Q 1494 3100 1266 2750 
Q 1038 2400 1038 1750 
Q 1038 1100 1269 750 
Q 1500 400 1925 400 
z
" transform="scale(0.015625)"/>
       <path id="HackGen35Console-Regular-63" d="M 2206 -88 
Q 1656 -88 1281 143 
Q 906 375 713 788 
Q 519 1213 519 1750 
Q 519 2294 712 2703 
Q 906 3113 1281 3350 
Q 1656 3588 2219 3588 
Q 2506 3588 2743 3519 
Q 2981 3450 3225 3313 
L 3225 2713 
Q 3000 2913 2778 3006 
Q 2556 3100 2269 3100 
Q 1844 3100 1594 2919 
Q 1344 2738 1234 2431 
Q 1125 2125 1125 1750 
Q 1125 1375 1237 1069 
Q 1350 763 1600 581 
Q 1850 400 2269 400 
Q 2544 400 2781 487 
Q 3019 575 3225 775 
L 3225 175 
Q 2775 -88 2206 -88 
z
" transform="scale(0.015625)"/>
       <path id="HackGen35Console-Regular-68" d="M 619 4863 
L 1194 4863 
L 1194 2975 
Q 1506 3588 2225 3588 
Q 2656 3588 2887 3388 
Q 3119 3188 3206 2863 
Q 3294 2538 3294 2169 
L 3294 0 
L 2713 0 
L 2713 2169 
Q 2713 2644 2547 2866 
Q 2381 3088 2031 3088 
Q 1706 3088 1525 2925 
Q 1344 2763 1269 2513 
Q 1194 2250 1194 1975 
L 1194 0 
L 619 0 
L 619 4863 
z
" transform="scale(0.015625)"/>
      </defs>
      <use xlink:href="#HackGen35Console-Regular-45"/>
      <use xlink:href="#HackGen35Console-Regular-70" transform="translate(60.351562 0)"/>
      <use xlink:href="#HackGen35Console-Regular-6f" transform="translate(120.703125 0)"/>
      <use xlink:href="#HackGen35Console-Regular-63" transform="translate(181.054688 0)"/>
      <use xlink:href="#HackGen35Console-Regular-68" transform="translate(241.40625 0)"/>
     </g>
    </g>
   </g>
   <g id="matplotlib.axis_2">
    <g id="ytick_1">
     <g id="line2d_7">
      <defs>
       <path id="mb471843db1" d="M 0 0 
L -3.5 0 
" style="stroke: #000000; stroke-width: 0.8"/>
      </defs>
      <g>
       <use xlink:href="#mb471843db1" x="72" y="320.4" style="stroke: #000000; stroke-width: 0.8"/>
      </g>
     </g>
     <g id="text_8">
      <!-- $\mathdefault{10^{-2}}$ -->
      <g transform="translate(44.1 324.199219) scale(0.1 -0.1)">
       <defs>
        <path id="HackGen35Console-Regular-2212" d="M 281 2275 
L 3581 2275 
L 3581 1738 
L 281 1738 
L 281 2275 
z
" transform="scale(0.015625)"/>
       </defs>
       <use xlink:href="#HackGen35Console-Regular-31" transform="translate(0 0.765625)"/>
       <use xlink:href="#HackGen35Console-Regular-30" transform="translate(60.351562 0.765625)"/>
       <use xlink:href="#HackGen35Console-Regular-2212" transform="translate(121.660156 39.046875) scale(0.7)"/>
       <use xlink:href="#HackGen35Console-Regular-32" transform="translate(163.90625 39.046875) scale(0.7)"/>
      </g>
     </g>
    </g>
    <g id="ytick_2">
     <g id="line2d_8">
      <g>
       <use xlink:href="#mb471843db1" x="72" y="181.8" style="stroke: #000000; stroke-width: 0.8"/>
      </g>
     </g>
     <g id="text_9">
      <!-- $\mathdefault{10^{-1}}$ -->
      <g transform="translate(44.1 185.599219) scale(0.1 -0.1)">
       <use xlink:href="#HackGen35Console-Regular-31" transform="translate(0 0.717187)"/>
       <use xlink:href="#HackGen35Console-Regular-30" transform="translate(60.351562 0.717187)"/>
       <use xlink:href="#HackGen35Console-Regular-2212" transform="translate(121.660156 38.998437) scale(0.7)"/>
       <use xlink:href="#HackGen35Console-Regular-31" transform="translate(163.90625 38.998437) scale(0.7)"/>
      </g>
     </g>
    </g>
    <g id="ytick_3">
     <g id="line2d_9">
      <g>
       <use xlink:href="#mb471843db1" x="72" y="43.2" style="stroke: #000000; stroke-width: 0.8"/>
      </g>
     </g>
     <g id="text_10">
      <!-- $\mathdefault{10^{0}}$ -->
      <g transform="translate(48.3 46.999219) scale(0.1 -0.1)">
       <use xlink:href="#HackGen35Console-Regular-31" transform="translate(0 0.765625)"/>
       <use xlink:href="#HackGen35Console-Regular-30" transform="translate(60.351562 0.765625)"/>
       <use xlink:href="#HackGen35Console-Regular-30" transform="translate(121.660156 39.046875) scale(0.7)"/>
      </g>
     </g>
    </g>
    <g id="ytick_4">
     <g id="line2d_10">
      <defs>
       <path id="m5044adce1e" d="M 0 0 
L -2 0 
" style="stroke: #000000; stroke-width: 0.6"/>
      </defs>
      <g>
       <use xlink:href="#m5044adce1e" x="72" y="278.677243" style="stroke: #000000; stroke-width: 0.6"/>
      </g>
     </g>
    </g>
    <g id="ytick_5">
     <g id="line2d_11">
      <g>
       <use xlink:href="#m5044adce1e" x="72" y="254.270994" style="stroke: #000000; stroke-width: 0.6"/>
      </g>
     </g>
    </g>
    <g id="ytick_6">
     <g id="line2d_12">
      <g>
       <use xlink:href="#m5044adce1e" x="72" y="236.954485" style="stroke: #000000; stroke-width: 0.6"/>
      </g>
     </g>
    </g>
    <g id="ytick_7">
     <g id="line2d_13">
      <g>
       <use xlink:href="#m5044adce1e" x="72" y="223.522757" style="stroke: #000000; stroke-width: 0.6"/>
      </g>
     </g>
    </g>
    <g id="ytick_8">
     <g id="line2d_14">
      <g>
       <use xlink:href="#m5044adce1e" x="72" y="212.548237" style="stroke: #000000; stroke-width: 0.6"/>
      </g>
     </g>
    </g>
    <g id="ytick_9">
     <g id="line2d_15">
      <g>
       <use xlink:href="#m5044adce1e" x="72" y="203.269412" style="stroke: #000000; stroke-width: 0.6"/>
      </g>
     </g>
    </g>
    <g id="ytick_10">
     <g id="line2d_16">
      <g>
       <use xlink:href="#m5044adce1e" x="72" y="195.231728" style="stroke: #000000; stroke-width: 0.6"/>
      </g>
     </g>
    </g>
    <g id="ytick_11">
     <g id="line2d_17">
      <g>
       <use xlink:href="#m5044adce1e" x="72" y="188.141988" style="stroke: #000000; stroke-width: 0.6"/>
      </g>
     </g>
    </g>
    <g id="ytick_12">
     <g id="line2d_18">
      <g>
       <use xlink:href="#m5044adce1e" x="72" y="140.077243" style="stroke: #000000; stroke-width: 0.6"/>
      </g>
     </g>
    </g>
    <g id="ytick_13">
     <g id="line2d_19">
      <g>
       <use xlink:href="#m5044adce1e" x="72" y="115.670994" style="stroke: #000000; stroke-width: 0.6"/>
      </g>
     </g>
    </g>
    <g id="ytick_14">
     <g id="line2d_20">
      <g>
       <use xlink:href="#m5044adce1e" x="72" y="98.354485" style="stroke: #000000; stroke-width: 0.6"/>
      </g>
     </g>
    </g>
    <g id="ytick_15">
     <g id="line2d_21">
      <g>
       <use xlink:href="#m5044adce1e" x="72" y="84.922757" style="stroke: #000000; stroke-width: 0.6"/>
      </g>
     </g>
    </g>
    <g id="ytick_16">
     <g id="line2d_22">
      <g>
       <use xlink:href="#m5044adce1e" x="72" y="73.948237" style="stroke: #000000; stroke-width: 0.6"/>
      </g>
     </g>
    </g>
    <g id="ytick_17">
     <g id="line2d_23">
      <g>
       <use xlink:href="#m5044adce1e" x="72" y="64.669412" style="stroke: #000000; stroke-width: 0.6"/>
      </g>
     </g>
    </g>
    <g id="ytick_18">
     <g id="line2d_24">
      <g>
       <use xlink:href="#m5044adce1e" x="72" y="56.631728" style="stroke: #000000; stroke-width: 0.6"/>
      </g>
     </g>
    </g>
    <g id="ytick_19">
     <g id="line2d_25">
      <g>
       <use xlink:href="#m5044adce1e" x="72" y="49.541988" style="stroke: #000000; stroke-width: 0.6"/>
      </g>
     </g>
    </g>
    <g id="text_11">
     <!-- MSE -->
     <g transform="translate(36.7725 196.28625) rotate(-90) scale(0.16 -0.16)">
      <defs>
       <path id="HackGen35Console-Regular-4d" d="M 275 4663 
L 1119 4663 
L 1925 2288 
L 2738 4663 
L 3581 4663 
L 3581 0 
L 3000 0 
L 3000 4125 
L 2169 1663 
L 1694 1663 
L 856 4125 
L 856 0 
L 275 0 
L 275 4663 
z
" transform="scale(0.015625)"/>
       <path id="HackGen35Console-Regular-53" d="M 1831 -88 
Q 1494 -88 1162 -19 
Q 831 50 500 188 
L 500 863 
Q 850 638 1181 525 
Q 1494 425 1819 425 
Q 2294 425 2569 638 
Q 2831 850 2831 1250 
Q 2831 1588 2656 1763 
Q 2556 1863 2406 1931 
Q 2256 2000 2019 2050 
L 1681 2131 
Q 1369 2206 1131 2309 
Q 894 2413 731 2575 
Q 444 2875 444 3375 
Q 444 4013 863 4375 
Q 1063 4550 1341 4650 
Q 1619 4750 1981 4750 
Q 2256 4750 2544 4688 
Q 2688 4656 2847 4612 
Q 3006 4569 3169 4506 
L 3169 3863 
Q 3019 3963 2875 4031 
Q 2731 4100 2594 4144 
Q 2306 4238 2013 4238 
Q 1569 4238 1306 4025 
Q 1044 3813 1044 3450 
Q 1044 3288 1087 3181 
Q 1131 3075 1219 3000 
Q 1394 2831 1850 2725 
L 2181 2650 
Q 2831 2500 3131 2169 
Q 3431 1844 3438 1281 
Q 3438 925 3328 675 
Q 3219 425 3031 263 
Q 2619 -88 1831 -88 
z
" transform="scale(0.015625)"/>
      </defs>
      <use xlink:href="#HackGen35Console-Regular-4d"/>
      <use xlink:href="#HackGen35Console-Regular-53" transform="translate(60.351562 0)"/>
      <use xlink:href="#HackGen35Console-Regular-45" transform="translate(120.703125 0)"/>
     </g>
    </g>
   </g>
   <g id="line2d_26">
    <path d="M 92.290909 125.760364 
L 96.390083 180.69178 
L 100.489256 186.932021 
L 104.58843 205.728978 
L 108.687603 223.006359 
L 112.786777 229.024656 
L 116.88595 233.939754 
L 120.985124 239.308356 
L 125.084298 243.588183 
L 129.183471 246.528812 
L 133.282645 249.015076 
L 137.381818 251.30891 
L 141.480992 253.237309 
L 145.580165 255.621156 
L 149.679339 257.528797 
L 153.778512 259.409072 
L 157.877686 261.435356 
L 161.97686 263.035865 
L 166.076033 264.600301 
L 170.175207 265.888756 
L 174.27438 266.978288 
L 178.373554 268.325505 
L 182.472727 269.589915 
L 186.571901 270.465892 
L 190.671074 271.537895 
L 194.770248 272.246834 
L 198.869421 273.247782 
L 202.968595 273.881526 
L 207.067769 274.925792 
L 211.166942 275.412675 
L 215.266116 276.094285 
L 219.365289 276.671595 
L 223.464463 277.412994 
L 227.563636 277.71005 
L 231.66281 278.745609 
L 235.761983 279.090587 
L 239.861157 279.384638 
L 243.960331 279.912872 
L 248.059504 280.614982 
L 252.158678 280.926459 
L 256.257851 281.756927 
L 260.357025 282.190577 
L 264.456198 282.481521 
L 268.555372 283.276063 
L 272.654545 283.675355 
L 276.753719 284.14379 
L 280.852893 284.726787 
L 284.952066 285.374754 
L 289.05124 285.685766 
L 293.150413 286.137341 
L 297.249587 286.745489 
L 301.34876 287.052474 
L 305.447934 288.018169 
L 309.547107 288.173676 
L 313.646281 288.967565 
L 317.745455 289.641372 
L 321.844628 290.344606 
L 325.943802 291.23226 
L 330.042975 292.057131 
L 334.142149 292.697022 
L 338.241322 293.543825 
L 342.340496 293.914973 
L 346.439669 294.478016 
L 350.538843 295.087912 
L 354.638017 295.546602 
L 358.73719 295.998746 
L 362.836364 296.466201 
L 366.935537 297.091277 
L 371.034711 297.640402 
L 375.133884 298.19643 
L 379.233058 298.266755 
L 383.332231 298.967707 
L 387.431405 299.601586 
L 391.530579 299.849667 
L 395.629752 300.24126 
L 399.728926 300.9376 
L 403.828099 301.165396 
L 407.927273 301.42297 
L 412.026446 301.881643 
L 416.12562 302.099917 
L 420.224793 302.385486 
L 424.323967 302.841794 
L 428.42314 303.212961 
L 432.522314 303.372026 
L 436.621488 303.667141 
L 440.720661 304.157384 
L 444.819835 304.068829 
L 448.919008 304.84814 
L 453.018182 304.950855 
L 457.117355 304.791384 
L 461.216529 305.356472 
L 465.315702 305.875539 
L 469.414876 305.752539 
L 473.51405 305.796565 
L 477.613223 306.391854 
L 481.712397 306.45806 
L 485.81157 306.779839 
L 489.910744 306.824412 
L 494.009917 307.093622 
L 498.109091 307.488663 
" clip-path="url(#pb7b6ffb011)" style="fill: none; stroke: #0000ff; stroke-width: 1.5; stroke-linecap: square"/>
   </g>
   <g id="line2d_27">
    <path d="M 92.290909 157.552903 
L 96.390083 183.035566 
L 100.489256 178.62908 
L 104.58843 212.521034 
L 108.687603 212.732983 
L 112.786777 221.211184 
L 116.88595 233.204587 
L 120.985124 240.32445 
L 125.084298 239.07932 
L 129.183471 238.285604 
L 133.282645 251.624426 
L 137.381818 247.005458 
L 141.480992 251.025073 
L 145.580165 254.891623 
L 149.679339 250.889767 
L 153.778512 255.033256 
L 157.877686 258.968877 
L 161.97686 259.211017 
L 166.076033 264.966363 
L 170.175207 262.328579 
L 174.27438 264.961754 
L 178.373554 264.071023 
L 182.472727 266.953667 
L 186.571901 267.860261 
L 190.671074 265.82765 
L 194.770248 270.820736 
L 198.869421 272.033173 
L 202.968595 275.416074 
L 207.067769 271.19305 
L 211.166942 276.339599 
L 215.266116 276.586932 
L 219.365289 274.461901 
L 223.464463 275.822709 
L 227.563636 277.88353 
L 231.66281 277.480101 
L 235.761983 275.202269 
L 239.861157 278.291056 
L 243.960331 274.90414 
L 248.059504 275.181534 
L 252.158678 278.87026 
L 256.257851 280.817516 
L 260.357025 282.458486 
L 264.456198 280.875094 
L 268.555372 280.690257 
L 272.654545 279.579606 
L 276.753719 284.381764 
L 280.852893 286.779642 
L 284.952066 276.935935 
L 289.05124 284.280085 
L 293.150413 283.215543 
L 297.249587 281.141189 
L 301.34876 281.958688 
L 305.447934 284.037537 
L 309.547107 279.487478 
L 313.646281 287.97341 
L 317.745455 289.881024 
L 321.844628 287.813294 
L 325.943802 277.877887 
L 330.042975 283.765302 
L 334.142149 289.382674 
L 338.241322 284.496912 
L 342.340496 289.760628 
L 346.439669 287.528054 
L 350.538843 292.226066 
L 354.638017 291.132331 
L 358.73719 295.878413 
L 362.836364 295.851917 
L 366.935537 277.132436 
L 371.034711 288.297597 
L 375.133884 290.616353 
L 379.233058 290.304395 
L 383.332231 295.584933 
L 387.431405 292.23849 
L 391.530579 287.432691 
L 395.629752 278.865735 
L 399.728926 301.292903 
L 403.828099 297.314264 
L 407.927273 292.651368 
L 412.026446 297.393003 
L 416.12562 285.668152 
L 420.224793 294.120701 
L 424.323967 302.733953 
L 428.42314 299.699714 
L 432.522314 287.951924 
L 436.621488 294.732808 
L 440.720661 300.146176 
L 444.819835 292.312291 
L 448.919008 296.195563 
L 453.018182 298.385645 
L 457.117355 287.548823 
L 461.216529 300.582397 
L 465.315702 297.966026 
L 469.414876 305.085934 
L 473.51405 295.533114 
L 477.613223 302.61977 
L 481.712397 298.999572 
L 485.81157 289.574987 
L 489.910744 292.741551 
L 494.009917 304.214758 
L 498.109091 306.25718 
" clip-path="url(#pb7b6ffb011)" style="fill: none; stroke: #008000; stroke-width: 1.5; stroke-linecap: square"/>
   </g>
   <g id="patch_3">
    <path d="M 72 320.4 
L 72 43.2 
" style="fill: none; stroke: #000000; stroke-width: 0.8; stroke-linejoin: miter; stroke-linecap: square"/>
   </g>
   <g id="patch_4">
    <path d="M 518.4 320.4 
L 518.4 43.2 
" style="fill: none; stroke: #000000; stroke-width: 0.8; stroke-linejoin: miter; stroke-linecap: square"/>
   </g>
   <g id="patch_5">
    <path d="M 72 320.4 
L 518.4 320.4 
" style="fill: none; stroke: #000000; stroke-width: 0.8; stroke-linejoin: miter; stroke-linecap: square"/>
   </g>
   <g id="patch_6">
    <path d="M 72 43.2 
L 518.4 43.2 
" style="fill: none; stroke: #000000; stroke-width: 0.8; stroke-linejoin: miter; stroke-linecap: square"/>
   </g>
   <g id="legend_1">
    <g id="patch_7">
     <path d="M 419.040625 80.55625 
L 511.4 80.55625 
Q 513.4 80.55625 513.4 78.55625 
L 513.4 50.2 
Q 513.4 48.2 511.4 48.2 
L 419.040625 48.2 
Q 417.040625 48.2 417.040625 50.2 
L 417.040625 78.55625 
Q 417.040625 80.55625 419.040625 80.55625 
z
" style="fill: #ffffff; opacity: 0.8; stroke: #cccccc; stroke-linejoin: miter"/>
    </g>
    <g id="line2d_28">
     <path d="M 421.040625 56.298437 
L 431.040625 56.298437 
L 441.040625 56.298437 
" style="fill: none; stroke: #0000ff; stroke-width: 1.5; stroke-linecap: square"/>
    </g>
    <g id="text_12">
     <!-- Train Loss -->
     <g transform="translate(449.040625 59.798437) scale(0.1 -0.1)">
      <defs>
       <path id="HackGen35Console-Regular-54" d="M 1619 4138 
L 156 4138 
L 156 4663 
L 3713 4663 
L 3713 4138 
L 2256 4138 
L 2256 0 
L 1619 0 
L 1619 4138 
z
" transform="scale(0.015625)"/>
       <path id="HackGen35Console-Regular-72" d="M 950 3500 
L 1469 3500 
L 1531 2813 
Q 1681 3188 1975 3388 
Q 2269 3588 2681 3588 
Q 3119 3588 3431 3363 
L 3431 2775 
Q 3094 3050 2631 3050 
Q 2100 3050 1815 2712 
Q 1531 2375 1531 1738 
L 1531 0 
L 950 0 
L 950 3500 
z
" transform="scale(0.015625)"/>
       <path id="HackGen35Console-Regular-61" d="M 1594 -88 
Q 1081 -88 756 200 
Q 431 488 431 1038 
Q 431 1488 650 1744 
Q 869 2000 1222 2106 
Q 1575 2213 1975 2213 
L 2744 2213 
L 2744 2300 
Q 2744 2750 2519 2925 
Q 2294 3100 1881 3100 
Q 1563 3100 1259 3012 
Q 956 2925 688 2763 
L 688 3338 
Q 975 3444 1269 3516 
Q 1563 3588 1869 3588 
Q 2181 3588 2475 3500 
Q 2769 3413 2987 3219 
Q 3206 3025 3275 2694 
Q 3325 2463 3325 2000 
L 3325 1281 
Q 3325 988 3359 631 
Q 3394 275 3506 0 
L 2931 0 
Q 2881 125 2850 262 
Q 2819 400 2794 531 
Q 2606 219 2281 65 
Q 1956 -88 1594 -88 
z
M 1738 388 
Q 2094 388 2319 563 
Q 2544 738 2644 1022 
Q 2744 1306 2744 1631 
L 2744 1763 
L 2019 1763 
Q 1775 1763 1540 1706 
Q 1306 1650 1156 1497 
Q 1006 1344 1006 1050 
Q 1006 719 1209 553 
Q 1413 388 1738 388 
z
" transform="scale(0.015625)"/>
       <path id="HackGen35Console-Regular-69" d="M 1644 4138 
Q 1544 4138 1544 4225 
L 1544 4769 
Q 1544 4863 1644 4863 
L 2094 4863 
Q 2181 4863 2181 4769 
L 2181 4225 
Q 2181 4138 2094 4138 
L 1644 4138 
z
M 2694 -25 
Q 2181 -25 1893 306 
Q 1606 638 1606 1244 
L 1606 3050 
L 844 3050 
L 844 3500 
L 2181 3500 
L 2181 1244 
Q 2181 863 2325 663 
Q 2469 463 2744 463 
L 3419 463 
L 3419 -25 
L 2694 -25 
z
" transform="scale(0.015625)"/>
       <path id="HackGen35Console-Regular-6e" d="M 619 3500 
L 1131 3500 
L 1194 2975 
Q 1506 3588 2219 3588 
Q 3294 3588 3294 2169 
L 3294 0 
L 2713 0 
L 2713 2169 
Q 2713 2644 2547 2866 
Q 2381 3088 2044 3088 
Q 1631 3088 1413 2800 
Q 1194 2500 1194 1975 
L 1194 0 
L 619 0 
L 619 3500 
z
" transform="scale(0.015625)"/>
       <path id="HackGen35Console-Regular-20" transform="scale(0.015625)"/>
       <path id="HackGen35Console-Regular-4c" d="M 681 4663 
L 1313 4663 
L 1313 531 
L 3569 531 
L 3569 0 
L 681 0 
L 681 4663 
z
" transform="scale(0.015625)"/>
       <path id="HackGen35Console-Regular-73" d="M 1844 -88 
Q 1344 -88 669 125 
L 669 725 
Q 1331 388 1844 388 
Q 2206 388 2425 544 
Q 2644 700 2644 950 
Q 2644 1175 2462 1312 
Q 2281 1450 1881 1531 
L 1638 1581 
Q 1144 1681 912 1909 
Q 681 2138 681 2538 
Q 681 3038 1025 3313 
Q 1369 3588 2006 3588 
Q 2544 3588 3044 3375 
L 3044 2813 
Q 2556 3100 2019 3100 
Q 1269 3100 1269 2588 
Q 1269 2419 1331 2322 
Q 1394 2225 1581 2156 
Q 1769 2088 2125 2013 
L 2356 1975 
Q 3225 1800 3225 1025 
Q 3225 506 2853 209 
Q 2481 -88 1844 -88 
z
" transform="scale(0.015625)"/>
      </defs>
      <use xlink:href="#HackGen35Console-Regular-54"/>
      <use xlink:href="#HackGen35Console-Regular-72" transform="translate(60.351562 0)"/>
      <use xlink:href="#HackGen35Console-Regular-61" transform="translate(120.703125 0)"/>
      <use xlink:href="#HackGen35Console-Regular-69" transform="translate(181.054688 0)"/>
      <use xlink:href="#HackGen35Console-Regular-6e" transform="translate(241.40625 0)"/>
      <use xlink:href="#HackGen35Console-Regular-20" transform="translate(301.757812 0)"/>
      <use xlink:href="#HackGen35Console-Regular-4c" transform="translate(362.109375 0)"/>
      <use xlink:href="#HackGen35Console-Regular-6f" transform="translate(422.460938 0)"/>
      <use xlink:href="#HackGen35Console-Regular-73" transform="translate(482.8125 0)"/>
      <use xlink:href="#HackGen35Console-Regular-73" transform="translate(543.164062 0)"/>
     </g>
    </g>
    <g id="line2d_29">
     <path d="M 421.040625 70.976562 
L 431.040625 70.976562 
L 441.040625 70.976562 
" style="fill: none; stroke: #008000; stroke-width: 1.5; stroke-linecap: square"/>
    </g>
    <g id="text_13">
     <!-- Test Loss -->
     <g transform="translate(449.040625 74.476562) scale(0.1 -0.1)">
      <defs>
       <path id="HackGen35Console-Regular-65" d="M 2119 -88 
Q 1313 -88 850 400 
Q 388 888 388 1725 
Q 388 2250 569 2669 
Q 750 3088 1112 3338 
Q 1475 3588 2006 3588 
Q 2706 3588 3090 3138 
Q 3475 2688 3475 1894 
L 3475 1613 
L 988 1613 
L 988 1594 
Q 988 1044 1275 722 
Q 1563 400 2125 400 
Q 2450 400 2756 500 
Q 3063 600 3344 750 
L 3344 175 
Q 3044 50 2741 -19 
Q 2438 -88 2119 -88 
z
M 2900 2063 
Q 2900 2350 2812 2587 
Q 2725 2825 2538 2963 
Q 2338 3100 2025 3100 
Q 1706 3100 1493 2959 
Q 1281 2819 1159 2584 
Q 1038 2350 1013 2063 
L 2900 2063 
z
" transform="scale(0.015625)"/>
       <path id="HackGen35Console-Regular-74" d="M 2531 -13 
Q 1888 -13 1619 250 
Q 1350 513 1350 1138 
L 1350 3050 
L 419 3050 
L 419 3500 
L 1350 3500 
L 1350 4413 
L 1925 4663 
L 1925 3500 
L 3231 3500 
L 3231 3050 
L 1925 3050 
L 1925 1138 
Q 1925 750 2072 600 
Q 2219 450 2581 450 
L 3231 450 
L 3231 -13 
L 2531 -13 
z
" transform="scale(0.015625)"/>
      </defs>
      <use xlink:href="#HackGen35Console-Regular-54"/>
      <use xlink:href="#HackGen35Console-Regular-65" transform="translate(60.351562 0)"/>
      <use xlink:href="#HackGen35Console-Regular-73" transform="translate(120.703125 0)"/>
      <use xlink:href="#HackGen35Console-Regular-74" transform="translate(181.054688 0)"/>
      <use xlink:href="#HackGen35Console-Regular-20" transform="translate(241.40625 0)"/>
      <use xlink:href="#HackGen35Console-Regular-4c" transform="translate(301.757812 0)"/>
      <use xlink:href="#HackGen35Console-Regular-6f" transform="translate(362.109375 0)"/>
      <use xlink:href="#HackGen35Console-Regular-73" transform="translate(422.460938 0)"/>
      <use xlink:href="#HackGen35Console-Regular-73" transform="translate(482.8125 0)"/>
     </g>
    </g>
   </g>
  </g>
 </g>
 <defs>
  <clipPath id="pb7b6ffb011">
   <rect x="72" y="43.2" width="446.4" height="277.2"/>
  </clipPath>
 </defs>
</svg>
